<?xml version="1.0" encoding="UTF-8" standalone="no"?>
<!-- Created with Inkscape (http://www.inkscape.org/) -->

<svg
   xmlns:dc="http://purl.org/dc/elements/1.1/"
   xmlns:cc="http://creativecommons.org/ns#"
   xmlns:rdf="http://www.w3.org/1999/02/22-rdf-syntax-ns#"
   xmlns:svg="http://www.w3.org/2000/svg"
   xmlns="http://www.w3.org/2000/svg"
   xmlns:sodipodi="http://sodipodi.sourceforge.net/DTD/sodipodi-0.dtd"
   xmlns:inkscape="http://www.inkscape.org/namespaces/inkscape"
   width="273.48746mm"
   height="80.897202mm"
   viewBox="0 0 273.48746 80.897202"
   version="1.1"
   id="svg57"
   inkscape:version="0.92.2 5c3e80d, 2017-08-06"
   sodipodi:docname="nematronix_largo.svg">
  <defs
     id="defs51" />
  <sodipodi:namedview
     id="base"
     pagecolor="#000000"
     bordercolor="#666666"
     borderopacity="1.0"
     inkscape:pageopacity="0"
     inkscape:pageshadow="2"
     inkscape:zoom="0.35"
     inkscape:cx="-83.316151"
     inkscape:cy="-10.551957"
     inkscape:document-units="mm"
     inkscape:current-layer="g934"
     showgrid="false"
     fit-margin-top="0"
     fit-margin-left="0"
     fit-margin-right="0"
     fit-margin-bottom="5.2"
     inkscape:window-width="1440"
     inkscape:window-height="794"
     inkscape:window-x="0"
     inkscape:window-y="1"
     inkscape:window-maximized="1" />
  <metadata
     id="metadata54">
    <rdf:RDF>
      <cc:Work
         rdf:about="">
        <dc:format>image/svg+xml</dc:format>
        <dc:type
           rdf:resource="http://purl.org/dc/dcmitype/StillImage" />
        <dc:title />
      </cc:Work>
    </rdf:RDF>
  </metadata>
  <g
     inkscape:label="Capa 1"
     inkscape:groupmode="layer"
     id="layer1"
     transform="translate(-223.88335,-186.09664)">
    <g
       transform="translate(202.08337,-114.91746)"
       id="layer1-9"
       inkscape:label="Capa 1">
      <g
         id="g1210"
         inkscape:export-xdpi="15"
         inkscape:export-ydpi="15"
         transform="matrix(1.534416,0,0,1.6666839,-42.01253,-9.713481)">
        <g
           id="g919"
           inkscape:export-filename="/Users/gustavomedina/Desktop/app nematronix/nematronix.png"
           inkscape:export-xdpi="96"
           inkscape:export-ydpi="96"
           transform="translate(2.0691912,120.96625)">
          <g
             id="g934"
             inkscape:export-filename="/Users/gustavomedina/Pictures/nematronix_largo.png"
             inkscape:export-xdpi="37.049492"
             inkscape:export-ydpi="37.049492">
            <path
               inkscape:export-ydpi="95.660004"
               inkscape:export-xdpi="95.660004"
               inkscape:connector-curvature="0"
               id="path909"
               style="fill:#565757;fill-rule:evenodd;stroke:#ffffff;stroke-width:0.51092076;stroke-linecap:butt;stroke-linejoin:miter;stroke-dasharray:none"
               d="m 60.91978,77.28217 3.33671,-5.779084 1.271635,-2.202478 1.787663,2.425876 0.03092,3.712837 -0.03092,-3.712837 -1.787663,-2.425876 3.19e-4,-6.48e-4 2.064598,-3.576127 h 6.364078 v 9.706548 -9.706537 9.706537 -9.706537 h 0.309129 6.673142 l 3.336553,5.779242 3.336708,5.779084 -3.336708,5.779136 -3.336553,5.779189 H 74.266249 67.593042 L 66.089121,86.23571 67.82655,84.498227 h 9.068004 l 3.021188,-3.0014 0.04404,-7.088288 -0.04404,7.088288 -3.021188,3.0014 H 67.82655 L 66.089121,86.23571 65.10485,84.530848 64.25649,83.061306 Z m 6.268133,-1.851789 c 0.775932,0 1.404832,0.628899 1.404832,1.404833 0,0.775986 -0.6289,1.404833 -1.404832,1.404833 -0.775988,0 -1.404833,-0.628847 -1.404833,-1.404833 0,-0.775934 0.628845,-1.404833 1.404833,-1.404833 z m 6.769207,0 c 0.775988,0 1.404833,0.628899 1.404833,1.404833 0,0.775986 -0.628845,1.404833 -1.404833,1.404833 -0.775933,0 -1.404831,-0.628847 -1.404831,-1.404833 0,-0.775934 0.628898,-1.404833 1.404831,-1.404833 z m 6.002633,-1.021842 c -0.775942,0 -1.404839,-0.628845 -1.404839,-1.404832 0,-0.775933 0.628897,-1.404833 1.404839,-1.404833 0.775985,0 1.404828,0.6289 1.404828,1.404833 0,0.775987 -0.628843,1.404832 -1.404828,1.404832 z" />
            <text
               inkscape:export-ydpi="95.660004"
               inkscape:export-xdpi="95.660004"
               id="text913"
               y="99.130432"
               x="86.322395"
               transform="scale(1.0317333,0.96924269)"
               style="font-size:14.26571941px;fill:#ffffff;fill-opacity:0.94117647;stroke:#fffff0;stroke-width:1.18881011;stroke-opacity:0">
              <tspan
                 style="font-style:normal;font-variant:normal;font-weight:bold;font-stretch:normal;font-size:17.99641228px;font-family:'Qanelas Soft DEMO';-inkscape-font-specification:'Qanelas Soft DEMO weight=250';fill:#ffffff;fill-opacity:0.94117647;stroke:#fffff0;stroke-width:1.18881011;stroke-opacity:0"
                 id="tspan911"
                 font-size="12.0000">NEMATRONIX</tspan>
            </text>
            <path
               inkscape:export-ydpi="95.660004"
               inkscape:export-xdpi="95.660004"
               inkscape:connector-curvature="0"
               id="path915"
               style="fill:#63d303;fill-rule:evenodd;stroke:#ffffff;stroke-width:0.51092076;stroke-linecap:butt;stroke-linejoin:miter;stroke-dasharray:none"
               d="m 46.4866,78.251023 h 6.673154 6.673155 l 3.33655,5.779244 0.815952,1.413133 1.112521,1.926929 -1.273764,1.273923 -4.506703,0.113402 1.59e-4,0.0065 c 0,0.775987 -0.628899,1.404832 -1.404833,1.404832 -0.775986,0 -1.404832,-0.628845 -1.404832,-1.404832 0,-0.775933 0.628846,-1.404833 1.404832,-1.404833 0.773805,0 1.401215,0.625441 1.404674,1.398341 l 4.506703,-0.113402 1.273764,-1.273923 1.408291,2.43902 -3.336764,5.779136 -0.709839,1.229542 h -9.236646 c 0,0.775933 -0.6289,1.404831 -1.404833,1.404831 -0.775986,0 -1.404833,-0.628898 -1.404833,-1.404831 0,-0.775987 0.628847,-1.404832 1.404833,-1.404832 0.775933,0 1.404833,0.628845 1.404833,1.404832 h 9.236646 l -0.590264,1.022587 -2.036447,3.527118 H 53.159754 46.4866 l -3.336604,-5.779247 -3.33671,-5.779136 0.338661,-0.586486 8.598381,-0.01523 4.844621,-5.806701 c -0.375912,-0.252188 -0.623471,-0.680891 -0.623471,-1.167705 0,-0.775934 0.628899,-1.404833 1.404833,-1.404833 0.775986,0 1.404832,0.628899 1.404832,1.404833 0,0.775986 -0.628846,1.404833 -1.404832,1.404833 -0.289172,0 -0.557803,-0.08733 -0.781362,-0.237128 l -4.844621,5.806701 -8.598381,0.01523 2.998049,-5.192597 z m 2.263728,10.95662 4.844621,-5.806702 -4.844621,5.806702 -8.598381,0.01522 z" />
            <path
               inkscape:export-ydpi="95.660004"
               inkscape:export-xdpi="95.660004"
               inkscape:connector-curvature="0"
               id="path917"
               style="fill:#565757;fill-rule:evenodd;stroke:#ffffff;stroke-width:0.51092076;stroke-linecap:butt;stroke-linejoin:miter;stroke-dasharray:none"
               d="m 67.293332,90.634027 h 6.673154 6.673143 l 3.336606,5.779244 3.33671,5.779139 -0.755126,1.30798 -3.561655,-0.0224 -2.55444,2.4181 h -5.555675 l -2.49048,-3.32074 H 67.54238 c 0,0.77577 -0.629166,1.40499 -1.404993,1.40499 -0.775773,0 -1.404992,-0.62922 -1.404992,-1.40499 0,-0.77583 0.629219,-1.40499 1.404992,-1.40499 0.775827,0 1.404993,0.62916 1.404993,1.40499 h 4.853189 l 2.49048,3.32074 h 5.555675 l 2.55444,-2.4181 3.561655,0.0224 -2.327588,4.03122 -7.364627,0.0247 -2.739205,3.21394 c 0.344676,0.25597 0.568074,0.66626 0.568074,1.12849 0,0.77578 -0.629166,1.40499 -1.404992,1.40499 -0.775774,0 -1.404993,-0.62921 -1.404993,-1.40499 0,-0.77583 0.629219,-1.40499 1.404993,-1.40499 0.313598,0 0.60309,0.10271 0.836918,0.2765 l 2.739205,-3.21394 7.364627,-0.0247 -0.253996,0.43988 -3.336606,5.77924 h -6.673143 -6.673154 l -3.336604,-5.77924 -3.336711,-5.77908 2.410817,-4.175441 0.686371,-1.188831 h 6.50707 l 2.171294,3.192982 h 6.130236 c 0,-0.775834 0.629221,-1.405001 1.404995,-1.405001 0.775828,0 1.404996,0.629167 1.404996,1.405001 0,0.77577 -0.629168,1.40499 -1.404996,1.40499 -0.775774,0 -1.404995,-0.62922 -1.404995,-1.40499 h -6.130236 l -2.171294,-3.192982 h -6.50707 l 0.239523,-0.414867 z m 15.702832,12.844013 -2.55444,2.4181 h -5.555675 l -2.49048,-3.32074 h -4.853189 4.853189 l 2.49048,3.32074 h 5.555675 l 2.55444,-2.4181 3.561655,0.0224 z m -6.13056,4.07832 -2.739205,3.21394 2.739205,-3.21394 7.364627,-0.0247 z" />
          </g>
        </g>
      </g>
    </g>
  </g>
</svg>
